<?xml version="1.0" standalone="no"?>
<!DOCTYPE svg PUBLIC "-//W3C//DTD SVG 1.1//EN" "http://www.w3.org/Graphics/SVG/1.1/DTD/svg11.dtd">
<svg version="1.0" xmlns="http://www.w3.org/2000/svg" width="900" height="900" viewBox="0 0 900.000000 900.000000" preserveAspectRatio="xMidYMid meet">  <g transform="translate(0.000000,900.000000) scale(0.100000,-0.100000)" fill="#ffffff" stroke="none"> <path d="M4605 8180 c-71 -4 -150 -13 -175 -19 -25 -6 -61 -11 -80 -11 -19 0 -69 -7 -110 -15 -41 -9 -109 -23 -150 -31 -137 -28 -343 -84 -442 -120 -196 -72 -275 -103 -378 -151 -283 -131 -447 -229 -705 -422 -77 -57 -142 -107 -145 -110 -3 -3 -34 -31 -70 -60 -108 -91 -292 -278 -414 -422 -68 -80 -266 -351 -266 -364 0 -2 -13 -23 -29 -47 -16 -24 -39 -61 -51 -83 -70 -129 -82 -146 -250 -345 -36 -43 -103 -124 -150 -180 -47 -57 -98 -119 -115 -138 -236 -278 -915 -1100 -915 -1109 0 -6 17 -32 38 -56 20 -24 75 -91 122 -147 47 -56 114 -137 150 -180 36 -42 139 -167 230 -276 90 -109 192 -231 225 -270 33 -39 98 -117 145 -174 47 -56 114 -137 150 -180 36 -43 103 -124 150 -180 47 -56 116 -139 153 -184 154 -184 184 -221 248 -316 25 -36 52 -74 61 -85 9 -11 39 -47 65 -80 139 -173 299 -339 464 -480 180 -153 499 -378 609 -429 8 -4 42 -22 75 -41 111 -63 309 -154 455 -210 25 -9 60 -23 78 -31 18 -8 39 -14 47 -14 8 0 29 -6 47 -14 18 -7 60 -21 93 -31 33 -9 78 -23 100 -30 22 -7 76 -20 120 -30 44 -9 105 -23 135 -30 30 -8 75 -16 100 -19 25 -2 70 -9 100 -15 164 -31 315 -41 610 -41 168 0 337 5 375 11 39 6 106 14 150 19 78 8 124 16 275 46 147 30 384 94 448 120 18 8 40 14 50 14 9 0 26 7 36 15 11 8 28 15 37 15 10 0 30 6 46 14 15 8 48 22 73 31 94 36 337 153 435 210 33 19 69 39 80 45 23 12 25 13 164 105 113 75 173 117 181 125 3 3 34 28 70 55 36 27 72 56 81 64 9 9 45 40 80 70 35 30 111 102 169 160 92 92 134 138 241 261 37 43 199 259 199 266 0 3 13 23 28 43 16 20 32 43 35 51 4 8 16 29 27 45 11 17 24 39 30 50 6 11 19 34 29 50 20 31 141 272 169 335 8 19 19 44 25 54 5 11 13 31 17 45 5 14 18 51 30 81 50 130 105 317 133 450 67 316 80 453 74 770 -4 255 -9 321 -43 530 -27 164 -87 409 -120 488 -8 18 -14 39 -14 47 0 8 -6 29 -14 47 -8 18 -22 53 -31 78 -9 25 -24 61 -32 80 -8 19 -21 49 -28 65 -23 55 -146 299 -166 330 -10 17 -23 39 -28 50 -5 11 -21 37 -35 58 -14 21 -26 40 -26 42 0 7 -93 140 -168 240 -205 272 -458 524 -727 726 -119 90 -245 176 -290 199 -11 6 -33 19 -50 30 -47 30 -68 42 -157 88 -46 24 -90 47 -98 52 -47 27 -224 105 -332 146 -21 8 -57 21 -80 30 -117 44 -239 82 -383 117 -33 8 -82 21 -110 27 -27 7 -72 16 -100 21 -27 4 -79 12 -115 18 -220 37 -285 42 -553 46 -155 2 -340 0 -412 -5z m535 -950 c180 -15 372 -47 510 -86 85 -24 241 -74 285 -91 68 -26 228 -98 255 -113 8 -5 38 -21 65 -35 28 -14 64 -34 80 -45 17 -11 39 -24 50 -30 23 -12 44 -26 145 -93 138 -93 346 -280 496 -447 147 -163 323 -443 422 -670 8 -19 19 -43 23 -52 27 -54 90 -252 122 -383 36 -143 46 -221 68 -491 10 -119 10 -175 0 -265 -7 -63 -16 -148 -21 -189 -4 -41 -13 -96 -19 -122 -6 -27 -16 -69 -22 -95 -6 -27 -15 -64 -20 -83 -13 -58 -36 -132 -59 -190 -12 -30 -25 -66 -29 -80 -25 -80 -169 -364 -217 -427 -13 -17 -24 -34 -24 -37 0 -8 -118 -174 -141 -199 -11 -12 -34 -40 -50 -62 -39 -54 -299 -308 -378 -370 -148 -116 -370 -260 -461 -301 -8 -4 -51 -24 -95 -44 -93 -44 -164 -73 -302 -124 -118 -43 -325 -90 -523 -120 -146 -22 -603 -22 -750 0 -201 30 -428 83 -518 120 -18 8 -39 14 -47 14 -8 0 -31 7 -52 16 -21 9 -51 23 -68 29 -136 57 -310 145 -390 196 -16 10 -37 22 -45 26 -47 22 -263 181 -344 254 -58 51 -202 195 -262 260 -43 47 -216 274 -227 299 -4 8 -16 29 -27 45 -11 17 -24 39 -30 50 -6 11 -19 34 -29 50 -35 55 -151 297 -151 315 0 5 -6 24 -14 42 -25 58 -43 111 -61 173 -9 33 -23 81 -31 106 -8 26 -14 55 -14 65 0 11 -6 48 -15 84 -70 309 -57 765 31 1076 8 28 14 58 14 67 0 9 6 31 14 49 7 18 21 58 30 88 28 92 51 147 125 300 143 294 265 465 511 711 183 184 380 339 545 429 22 12 54 30 70 40 32 20 83 45 185 92 127 58 178 78 260 103 30 10 70 24 88 31 18 8 42 14 53 14 11 0 29 5 40 11 11 6 41 14 67 18 26 5 67 13 92 19 211 51 539 73 790 52z"/> </g> </svg>